<mxfile host="65bd71144e">
    <diagram id="paxkGYhOL94_uv_9jpMC" name="Page-1">
        <mxGraphModel dx="590" dy="451" grid="1" gridSize="10" guides="1" tooltips="1" connect="1" arrows="1" fold="1" page="1" pageScale="1" pageWidth="850" pageHeight="1100" math="0" shadow="0">
            <root>
                <mxCell id="0"/>
                <mxCell id="1" parent="0"/>
                <mxCell id="33" value="" style="shape=image;imageAspect=0;aspect=fixed;verticalLabelPosition=bottom;verticalAlign=top;image=data:image/png,iVBORw0KGgoAAAANSUhEUgAABaIAAAB9CAYAAABQzRSjAAAAAXNSR0IArs4c6QAAAARnQU1BAACxjwv8YQUAAAAJcEhZcwAAEnQAABJ0Ad5mH3gAAFnXSURBVHhe7Z29ru1Klba5x9anThAiQYgEQdRqdYIgAzIQEZABGRAe0kMK5Jw7aG5if3pWr3cx9jj1M2zX9PSc832kwna5PGr8Vblca7LPNz4ZY4wxxhhjjDHGGGOMMTfEG9HGGGOMMcYYY4wxxhhjbspnG9Ff/vXLTz/+yY8+/b///I+38t3vfefTb3776/e7nz7961//++mXv/rFp299+5sf93//h9+93/0/9CyyxH//z3+9FUCe2rRKfA5+8MPvv9X/7Oc/fa/5N8jMz1Oizqrr6QM9ORSR6/EBOuGTLWzRWYWYZL+cyRadv/jLF2/X5AnX0c9iFFNAhtpQOI99VeJljGmzcp4fjfdKGzGaEyRnNIerjcq950xjRszGYMxlSmu9seU92Btf9JmfjUVjqNJXrvcY/Jw8r+aYVmMhjsaU85hzkOfVmc6vTh4XjOPsn+zD0ftUZW9uOF7GGGPyuwHy+11Uvr9G33H5PRiL8LvJ9PjYiCbJSA4SknOSlyQhWb766p9vbZSALIp0n+u4qOKaEhM6Jj/P8TxFz3NUnfoCzrnPsyzeMn/68x/fntEgkJw48Gb6gORLh1iE9FB91H0LVZ3VVxy4mgjOpqqzJhYgj7jmmcgspuQS9/mIjXmIPE1YehYdcjHG9Fk5z8/Ge6UNzOYE7lEkB2ib++Iana8wZxrTozIGYz5TNAbzGKi8B0fji771TOxDddKn0lfU2WPw6+AX/ME8Kr/jI9ZXUI0FrIgp9VxHkEcR3B/p/OrkcaE/LkUfVt+nPCM5MW5QjSnnku14GWPMa8J7IL5DIL/fYbSWAO7xDpGc1necntX7KBbBud9NpsXHRjRJRILlv07oWsnKoiqSk5c2yOEYNw5j0gqSkXYcW5CwJOrf//G3t3YcWyjBW3Iq+vT0i/B8HFSgBeEeZjrHvtAbH7cmiTOZ6cwiHB3RVzZkv45iqueQM6ISL2PM11k5z8/Ge6UNzOZ56mZzuGQL2tFv1NmYK0BOjsYg5HyGvN7IY6BHdR01Wo9V+vIYHFONF4xiAStimuMFWcctOr8iLf9o45l36Zb36Wy8i1FMHS9jjDG8Iyp7cZXvr9l3XOW9U2ljXpO3jWgtbEZ/mdCvePLih4SkngUXKEkZAJLXS8DRggpIfm1KMgjyQk1Ih5acij49/SKSEzlrIxqYLKjvfXCcQUVnJjSO+FPHyCimxKcnP1KJlzHmcxhXjK+V8/xovFfawGyel5zRHK42kSvMmcZEKmMQWvm8dyN6Nr6EdGu9fyt9tXT2GPw3il/Lv5lRLGBFTFvxynHeovMr0hoX0edb36eRPRvRjpcxxhi9U2Z7cbO1hOSMvuNacjN+N5ken21EjxKExGu1yc8qaUl8BgD0knTUr/7ywocMkMSSl+npBhV9ONcAVMkfisihne5rUHHcAzJmOkdGvjqLis5MaExYxI3r6OdZTCVf0A91KqISL2PM51TmEMZSq01+lnPajsZ7pU1lnpec0RyuNpGKvcacSTUnaUN+k9OU1nqD+7P34JZ11Ei3Sl88S32kau8rQCzwPf7gOFqzjPy2KqbU53jleXWLzq9I9hdorOI7/Nvyf44L58jR2GqNdzGKqeNljDGGdwDvEt4BWh+03u+0q3x/jb7jOK+sRf1uMi2+wf+MFjaCxGq1yc8qaZXg/BImJ78Y9atfEugXAyRtvI70dAPqZ/pwzr1Ysr75PoWBidw9VHSOjHx1FhWdmaQ4x89cRz/OYir5QtcqohIvY8znVOaQ3hjPz3I+G++VNpV5XnJGc7jaRCr2GnMm1ZykTS55vUH+5zZxTMCWddRIt0pf1HkMziEG8YOstYYc+W1VTKnP8SKmOa5Q0fkVwVfxA1zjhLEK1LX8n+PCeS6974tRTIXjZYwxrwtzP+8f5n7OW99NW76/Rt9xeu/FEu9H/G4ymc82okmQHkrYvPjRQkuJyzl1wF9XKDn5xWhBpV8EIIuif3etpaN0aMmp6NPTLxLlMHD4yxCy9lLVWWiCaLU/i606cx39Ootpz0b1KyrxMsZ8DuMqjrcWe+Z5wXUcl5U2lXk+yunN4a2+rjBnGhOpjEGI+dxbb+Qx0KIyvoR0a42XSl9RZ+Ex2Ef+znGFUSxWxVQyIrM4j3R+RfAV/lDRprQ+rve8T2ffF6OYZhwvY4x5PeI7hfmfkt/v1KkdZfb9JbiOcrLcCn43GfG2EQ0sfFhE9f46wYKJpCFRIyQfz4mYtCSa5LaSdLSg4jnu5aJfGkToj3stOdTP9KkMoigHNGDjX462UNUZiAk6o/s92aIzcB39OoupcizHWP2KSryMMV9H89/KeV7k8V5pU5nnuZac3hwe28BV5kxjMrMxCDmfW+sN8j+OgRaV8SUYW9xrvd8rffGsx+A2+EVQy6+jWKyKKXJy33lebdHT+RXBDyNf7H2fjr4vRjFt4XgZY8xrEd8pvCu07ozvgspaguv4bgKuoxzO97xj/G4y8LERrV+ukBick7j8NT8mYPzrCfe1WIpt8jWJT10r2XoLKn76Tz39R5BLvUBP6pBNPfpJN0H9TB/OqaddLiLL0QJz619zqjpzn3p8rMki/pXqTPb4GfQMVGOqnGIipC19KO9EJV7GmK/DWGYsrZ7ngWuNd5i1qc4JWU5rDtc17a4wZxrTozIGc8631huz92B1fAn0oJ5jZtYX8KzHYB/5Bv9SOMc/0YeiF4uVMdU8r/Uc+nEd47VF51cE/1BG7Hmfjr4vRjF1vIwxxuR5P3837f3+Aq7je4/z2frQ7ybT42MjGkgONgBJDpWYbPzCJX5gKPEiObH078pEOYL+uMcxooVaJg8cZHKdS+w/X7f06cmhCM6zrVpgtn610KOqcyzEJPvoTPb4GbiWn6sxBT6E+EhXP+Rb/AtdJV7GmDa3mOchjneYtanOCVlOaw7nOpZ7z5nGjJiNQa7z2MnrDdrH52OBLe9cQCfqW+Nm1hfkeo/BzyF++hiktOZV0YvFypgyz6PTaJ7fovMrwriI47bF3vdp7/tiFFPHyxhjTH6n5O+mvd9fwHV871XWh343mR6fbUQbY4wxxhhjjDHGGGOMMavxRrQxxhhjjDHGGGOMMcaYm+KNaGOMMcYYY4wxxhhjjDE3xRvRxhhjjDHGGGOMMcYYY26KN6KNMcYYY4wxxhhjjDHG3BRvRBtjjDHGGGOMMcYYY4y5Kd6INsYYY4wxxhhjjDHGGHNTvBFtzEa++MsXn/77f/7r07/+9b/vNcY8N0dz/vd/+N2nL//65fvVcTwG97M6FsYYY4w5jtc2xtwOjy9jrkVzI/o3v/31p+9+7zuf/t9//sdb+fs//vZ+x5j7w0uEci8YGz/+yY/er26rD+OP8WjMPTmS87w/yONvffub7zXHyfpUuOU4fRRuEQvz/HjsvCaOuzHn0lrbfPXVP/3HY2MW8Crj65bv7lX7Et7fOB/yHL+r9Px/5trvaxvRKIVyKMA5Jf/liEH7y1/94tMPfvj9t7b5Ps9oUMvovYN81teM7HSVqA8yf/bzn759nHOPI31G+IBn8hq1ESv8Qxv1xcTJX/HM/3HmAMkQhxyvij5b8idCW3LB1MZyBcVCz+8dX6vknA16Kl/Re5a7e3M+gp/4Je4KWvpU2Krzs7IyFo/C1py/JY84b3jsHIdY53f5Lfzae0+qbMk1x33OqrX6M8ppfVvlMQCzvlbJWcWt9OE+bfPaBjnUPxKrYvGscmC0V9Cbx2NuVNrASp0rrNoDGbXZ802N3b2+qH8mKu/ue+9LrJJj6jAWyX+NqZ7/z1z7fW0jmkmKyaPHn/78xzflKSiJEUw6gsTmnj50WxNIlVlfFdS//u/IKnFiRDYDkP64Rz88EwOkoKgNixDacB1Z4R/J4Fnq9dHKs+a+H0f0m8dHRR+1meVPRnlgamO5AmOdGCoWGl9b55ZVcs4m5iv6VnJ3T87fipY+Fe6ps7kvMfaVnL8ljzhveOwchxjnd/kt/EpOKcfpT4W8Y32/Bcd9DGNYcY1jeeta/Vnl6DnNdcjjOv4htNLXKjkVeH42F99KH8Zaa20j+Y/Cqlg8qxyQLIrm6ph3yOfe6Hun0maVzlm/HjO76Fc6g2zgKCpt9G6iP+or39TPMr4qyD8j9vgQaIPPjrJKjtnHyP+V/FnF1zaiR4ppMmAi623+aBLShKFndC3og4Ux91gc58Sv9AVVObl/gWzu578CMVmNNjs0Uca/LFZ0rvgn/zEAWdjIJHE20k92ob/8HX0W26E/umYfKLF5Tm1bf33Dp9ivNvQbX5pVOaPcqNoVUcxzjkmfCPrnukgrf3hZ8wz16KJc6Y3HHtIn+ifGY4vt2YdRX+TlcYINtEcuyIYYP9ALL+cICw/q43gQ0rt1bwt5McU1crXoqbJKztkoP4BY6bzFLOeVY8jJY57c4Z5Kq58sh9Ibf9DTh37pjxyVnNxua19Hmc1jFSo6k3e04R5x0HiO88aKWFTGe5VWX3vnqArqD5Cj83uwYt5QPOM5vmvNkdyX7/J7UMzaRP8J8iDWVcZghRh7ZLXWEpWch2xXfH+dDTpk/bJfdd0bFxXkv9iXcmzr2Gnp05Ix8zP10c6cpzHmo/G+KsdWgR5xPkQ/9CZmW3hkOaM1m/InQtv4vqj0tUpOBZ5BNv318uoW+rTWNuQ6da2S55LZekM6H5lbqtwjD0fcQ07lW4YY9fyvNq3nRaXNKtt5hr5G46JiF89GnVs2VNpkNH567/hnGl8VpE8E/XNdpOXD1lqL8+yfGVU5XCvXyN0YL+WBfEwMdB7XCZDl9PJiBLFDDs8jRyXqBBWdKejLPbWVzq3cBPKH+phDR/uKUI+8Fsof+Rc5t8rnt41oEgQDZASd6ToONAxDGRTRfZ6NSGkhmRwFhssB1Os6Jkqlr4oc6qlDL+5Tok26T31EAyaDDgSXBMiBXeWfqI90RZ/4MjkL2aIJjIJ/ZYf0xk75Fz9wj7YRrvEbR9pxpF0cSMimjna0oR98yrWQHOWpBmuUw7PUcaSNrpUbVbsi9BP1EHpeIBsZOT9glD/IwFbuo4v8iO5bQA7yeT7arv6qtqMH19xHBjLjfdAEKh3VN30AR2zCdxHpl2nFUtAv99CT/ihxLO9FNhzdQF4l59Yo5jpvxUGMcj7mmBbdMc7kOvcUN/UZkRyOxJMjbVvxh54+PMtz6KPcoMT5V30hA51GuXaUyjxWoeIf6uK8oTa0F6tiMRvvVfTc0TmqimTofJTzZ7Nn3lAc8RM+wZfRj4qHrjnG+/hSVNpE/wHyaaN4gZ4bjcEKtNezyEJm7Bu4nuU89/Qs9fiI6625s4qsH6BbtI3z0bioIP9FOzU/b31fSp/RnFnxs+4L7sU21fEufxzNsVWgC/2DfIvu2LGFR5Yzeo8SP8YpsSTGysM4t1T6WiWnCrZo7qFf+o85dgt98CNjJ0Kf5L58zLlK1Id+uc/z9Cn9ojz65vrI3FJlq+09HlnOaFwQA+KjeS/HE6jjeeJDnxT1KSptVtkOs3FRsYtneF7IBo6i0kYgH73IbZ7r8UzjqwL6UAQx6ekz8iEysJX7+EHxV05VqciRzzhGH2pepY5rntU95CGbc0Ed19TTDru45vktqA/1pxJzQ204tnTWWGC8oQ+Fe/g56qTcieCvWLeqLyFZLXg25rPecYyV1bxtRMuYVkEZwTVKYWRsIycA7eMEhwG0iQ7AuGwMz0WHV/qqyJHzFBglZJRDsLlHEIHJmjraRWQLhfatoB71D31zTUyUPK2BdjbqXy8yBqL0bCG/y6eADPyqOo5ZBr4hRvE5+mzJiWQ5ldyAql0je5FBEb1BP8ofycdvIuYCxOdbRSA7+we7c93MdsVC6H72K+2p79lN+9i37CKvW+TnRWUs70H6Y98RVsm5NcSJovNeHHI+ROT/SI5zBDk8k1GujuYEMdOHe3GeyKivSE9ej+oYrMxjFWb+kU9G80aGe0diwTX1rfF+9hxVpZrz90D+3DJvyM8c8RFjD5skS1Teg5U2XFNEK/bcp25rjs/Ia4lqzlffX2eR9YPsV84r42Ir2RdVWvrs8TPX0c6YvxHaUN8b77q/Osf2EHNO42HPWv0Z5OQ4Rhin5BDPcozrtS19HZWjnOuVFuQfMtVvZJVdkPM8Q33rOVFZb9A3ekZWzC2ZPfnT4hnk9MYF7fE9ceNcJeaQ3nu0oQ/iu7VNReeV44LzmV30zX2h/qOvKm0g6s4z+b54pvFVBX0oQvHf4kP5jTwTMacgPt8qUJED+Hi0FlVfPKNzyPFTvIT6l+yKzkDfXI/WGzOdhWRhN+ScVHzUl/zDeBWr+hKtOoGM6EOg71vk86Z/moN7BBijAIehaFSWNtFRCjhHwXWrYLjgutJXq0Q5PC8Z0JJDoOPz9IuMKCdCcAk8bbNdR/2ja2KgxGQSRxfO78Wsf2xGX/kNP0S7QPcislVwjZwRVTmtkp/jmvoZyGYAapKIIIMY00by8mQRaeVPzgNBneyib+73ikCHbCcysp0z27mX7dDYyCjerdihG/c0oUqXli9HVMbyVogFcZ3l3IxVcq7ELOcrOSaob+VNSw5tlfORkT7MkTynfmgbcwW29NWjOgaRuyIXZjrTJ9exbxjZxb0sE7b4pzfeq/5p9UU/yIzQJtc9E3vnDfyMX/Ap8x/5j/+QE/1Km1bZ2obz2TuuMgYrzNYSHOO1oC7mKtfV99cZZP1ANop8DTzDs3shx3g+fgRWaemzx8+0ide9GNKG+h6rcmwFsgEdyFfO96zVn1UO6NsKOcgjT5jvFPdqXyvkVN9NgrxizDDvIYOcFqvsErTrrW2A+63nhHQZQd+UyEzuHrba3uNZ5QDtySfNXcQ9f8twL85te9pUdF45Lip20Sa+L+iDuthXpU2k9U0dwf5nGV9V0AW/o4PiHX2aafmw53fqkAuV/OE4kwNct4r8Kjk8o3PIfuY82xrXJNWcZ6wgi8Kz9BPHG+h+LupLKAY9tE6jTyDfyNlIlB/L1r4EbaL/I8jIcrOfV7F5Izrfi4rJkSSAAsqERR1HTQK5jQrPi1lfUJHTIssBkkvPc8792cST23C9yj9ZDgkRJ/yzGSU2ejNgNOlRsJH22ChaiZ1t5ZpnR2yRIz+r5NwY2SVkX08vyYgl2t2Ddsof2reeoy7nwoyWf5CBrMjMdu5lm+NkHpGs3pghN/RXO2To/Cgtu6rga+J6dFytknMlKjmf84DY92JBfS9vcj1tc87P9AEtkMkt2iJHL3Wo9rUC5I50rTLTec+8wb0sE7b4h3bcm70je7T6oh9kRtTPM3J03sAvbIgwtyKLvMdfcW6lDXnI/VjyWmvWRnGIhTaZ2RicUVlLcGz1T13MVa7zGOy9v84g6wfoEvXJ19AaF1vQvJw/oCq09NnjZ9rE614MaUP9iKM5thL6bsV065h+RjmMZeTkdwRxY3yLWV+r5FRhTkU28sgvcjvOhav1qaxtkIO8HtwbPQ/0TYnM5O6lavuMV5LDNfUj9rRZpfNsXECrr6gP7TnnWeZ+St4DqbTpQZs8Lp9xfFVAF/qOJb9vW9BOPqR96znqcpxHVOVwHeOuojzjXM/oHLKfJSdCvuf4VJitN9RX1JeSx4biMYL3h/SO52JlX0CbXhyRkf1FXlTkbmXzRnR2DNcEB/RX4l7BYYCDZwlB+1FfUJWTJ6YsJ0LSkbDcHy3cW4uRmc5b/BNfEpWJ9NaMEhu9o/4gW2NdK7FpE/NNvh+9bCpyKrkBtOnZJWRLLx+iPooV/Y/I+aOXLxOeUF1vPPZAF+WcaOX8zHZiEe3AftrnPEQ/2cIxxlxoIaFcwac9Ws+D+oi07BI9Ofg+6jxjlZxHYkvOg/Kel3ULZMX2IssB2uacn+mT0fiK+lT7WkFlHqsw03nPvMG9LBOq/uGa+tF4n0E/K+ao2LfO8XlemF2JVfMGczM+w0fIVPxivCrvwUobyQb6Ik7Vd1xvTmhBDHNO5bVENeer76+zwGfZz9n3nFfGxRboI64ntxDjLvb4mesoJ64HIrShvsqeHFtJ9q3GRi/Hsr3iGeX03kPIiPk862uVnCr0RR721qir9amsbehr1IZ+kE0fPbAp6gdZ51VcKQ/hanKIZX6G6xgL2sy+dyptturcg75G4wJmdinXewV/Vdq0wC7uZ3884/iqgD4UUMzJhRHZh9W11oyqHPSTzi2IvZ7ROSh+gnhFW1trkj3IP3G9MdNZ0Cbq2AK/Eyfpm//AvrIvGPkEGbEv5dAt1lqbNqJRWPdJAgU/D/yIkiVOHjiXOgzinHsc4yRQ6asiB0fiPAZATw7tqVfwaJ8nW56Pfagt12KVf7RIlxzsy23OAt/QLwNbOjCBRDShYD/38Z10pk7xyIkNslMopsQAv3GPEuOxRU4vNyp2CQY/cnpkfWL8RCV/9LLDVtrIh1FOBWRLZ+TzPHKIBVRt1wscechAZtY5v0zUd35h0yft1Ge+LzSG8vgDZM/GshjJQYZ0QUYsmVVyHo1KzmM3ccA3nOMPjS8gN7hPkZ90LZBDidA2+3CmT5wrKMhEDrkiqn2tgPGLbHzSm8cqVHSW75HdmzdWxaI63mfouSNzlJ4hxnGcyv6tvj6LVfMGPkSG5j/kKg+E8hCfcI4fOcZxWmmTc6P1jquMwRnKL+KJHjGe1EmnSs5zjzr0oJ584xq590A5yjH6J8aLutG42IpiG/vYAvpQIsjb6mfFhxyhyHbFtDLeYUWOrSSOA3SWndF2ofi3YvGscuI45Vnk0ZZnRKWvVXIqxHmvx0p9NN5HaF6kLfIoyBca5+gUx0iMCWOlOrfo3lbfiVX586xydE9yOHJN7ATxIp70eaTNFp1HVMZFxa4M7Wb6tNpgV1yv6F2Q5VxxfJ0B+lBEzANR8WFlrVWhIkd+5l7US7nHtZ7ROcjXgj64xh7uEReuo10VYqwp8k8rN3o6V9c2QFvpja8yK/sCtZOdcZyiA/eRgT8VP/W1kk0b0XxsMqhQhnYatCMwQg6J4Dw5gYLM6LBqX1vlcMxypCOOJxAtR2uCVaEtfUdW+ofnopzc11mgh2xWwfZM1Jd4aGKnyAc8l5+N90WOKSVP+HvkoJ9yo2oXMriX4xNp6UPM6E8bNJX8QTfquc+z2Mwx2zVD+kQb6V+6VG0H2iquOQ+Rh38pgrFDeybKjF48rXtCL8uWvytjWYzkUN8rmVVyHolqzstW4kBc8rwZ2+QilKsR7se4VvTJ46s191b6Wgl6j+axChWdW/NGbqP7rSJmfW0d7yPUF7Klx9Y5SnnBMY5T3uHoNMqXexJtymULmk8VH/zDdbY75yG+iWskmLVRvCKzd1xrDFbgGeQiA53QQzIlr5LzEGXl99fZ5PfXaI6injaUOC62opjsfb4Vd+Rt9XOMF8cc02ivSu4XVuXYSma2i9FaAp5RDu8H5inJ4cj8nPNx1tcqOatYpQ/X3OvFIMIchwzaU/I7F1lxDqfE9YbGMjrpfm9uUZsjVGPxiuMCn8/eBbkNxz1toKrzUSp2ZfAPbXv+hlYb+qFOhdzOdnE9ky3OHF9nIH0i2EdspFPFh621Vi/PRlTlZD/ThmdBecAzOgf5PEIdz1K/N+ezf3r5PNJZusWS4xKRHPpusbIvnos5zztMKFYU+kCf/I2/iq9tRBtj/g2DkUH/SKDzaPK5F7x4mNQqiwJzP66W8484Bu+JxllcJF+Nq85R5jF5hJyv4HFhzOtw5tpmy9xCOzYojHlkrjq+jDH/xhvRxnTgr4b8henRNk6v9ELEd/wljcUAGwW9v/KZa3C1nH/UMXgmbL7hIwq/4mCc8RF5r19iVPCi3RzhEXO+gseFMa/B2WubLXML7fIvQo15JK48vowx/8Yb0cY8GVd6IbIQ4P/WgT6P/ms1Y64IY4uNOAp/8OGPPVffkLvSHGUej0fM+QoeF8aYW7BlbmFeZe1ujKnhd7cx+/BGtDHGGGOMMcYYY4wxxpib4o1oY4wxxhhjjDHGGGOMMTfFG9HGGGOMMcYYY4wxxhhjboo3oo0xxhhjjDHGGGOMMcbcFG9EG7ORL/7yxdt/lOAZ/uNIxlQ4mvO//8Pvlv7Xqz0GjTHGGGOMMcaYx2P3RjT/Rd3vfu87H//l8r//42/vd4y5Lff+r9OS9z/+yY/er/xfy300HK/tHMl53g28I7717W++1xzHY3A7X331z6V/DDCvg8fXa+K4G2OMMY/FLd/dfM+xB3iUVXJeiWf8jvvYiOaXZT/7+U/fNgu0afDLX/3i/e7nkDi0Ick5p2z5ZVqrr5iMOJn6XuHXcEBA0FEb4nsTmo0SNjVGts90FtSpDXpJ1y2ssutZuefHEfEkJnEiqOhTybEzWT12kEFp5fyKvqpzQoUz43XFsYwush+dZr7Ym/MRfMmvolfwLGPwbMg97B6xNTfMdipz5tWojC8zhljn+f8Wfj37XWmMMcaY61B5d+/9JqLtim/ZVXJeicp33IyrfYN8bESTsCThn/78x7eFrIxtJQlK/+CH33+/2o4ckPvSRoUW0ujEPRX0o2+hOtr1dK2gASt92HCWfmKmM3BPetBGzxD0Layy61lRvO4B/ebcr+ijNqMcO5NVOYYM/CG7lPNswIoVfSGbZ5HB8yrIjXNCBcVihNocjdcK21cT7ZdPR3B/T87fir36qM1VxuDZkHvYOyL6sZIbZjuVOfNqxLww+yDGef6/hV/PflcaY4wx5jpU3t1qs/WbqLWW2cMqOa8E/sJvR7jaN8jbRjS/9kWJ/JcQFM0f/DBLHi16acfCNyd1a4DQFmeAFtKxDxyUdZTTWu0jM30ybBzTNv6FYKYzIDv6C7/SL4NbSFfpwr38a/KqXWcQ9cVWfCdfxlhU7JIPeU5tW399w+/4UW3oN27mV+WM4l61K6K8qOQz+ue6SCvH8Bc6o6t0a/UH/AGEe9gR6emoF4xisirH8sSlcRr/QLOir9az6qsXrx5nxmuVn1cS7SfnK3b3cl5jUPNcHPPYKp9QWv1kOZRRPK80Bkco3pTefEhuoB9t8B99cMw5wrXmpjyPgWzv+TDHIZbcl2TBLDfMPjQnCM1jW/4fA4ppPCe/lHccxSx/YNYm5oXI4+sRxk4c62eDDlm/7Fddx7Hcsn9E612jHBvNrS1a+rRkzPxMfbQz52mM+Wg9tirHjDHGmGdF7+7Inm+i1lqL87yWmVGVk9cS8d2udYLWI6wVdJ7XJbM1SYW4LkHGo3zHzUDniNaHW75BVvK2ES1nZ2PkXEBR2qktAdE1ySvkLI7c03VMApxLQKgjqNpUUxv60vNCbWJfQjpl/aGij6BfkoMkyUk90xmiDtITHzL4hWyjMIh4hjYtRnadBbaihyYwCjZrsChGFbu4xrccaceRdnFAIps62tFGfudaSI5ykGOWw7PUcWzFvWpXhH6iHkLPC2QjI+cQjHJMOuI/zlV4JtOyWSAbGRF8mOsAO5FDPyvQi6w1oR3pS/kV4zKaE0bcI16r/XyEaD/HVl6IUc4rz7BNsaC9wA/ck+3R50JyOOIbjrRt5TVcaQyOoL2eRVbLfq4Zl+jC3CPbeUZwrjr8qGvNY8BzIx8qDpozFBNKtotnKTof5YZZw2jO7EHseIY8J4eJP3XKD+qhkj+VNjEvoDW+9NxVxg739Cz1+IhrbLwHWT9At2gb5+iJ3TEWrXmsh/wX7TzyrkQf5g7kaQ7R3AIVP+u+4F5sQz5xPluPyR9Hc8wYY4x5VvQeFXu/iZAR11pak/He3UJFDueq452va61FtW7Q+59z5CGbc1FZk1RYtRaVrhxbdgHPoad0lhzkArrwbOU7bit7vkFW8vFPc+BIDNcHDIpRh3Igx7UKzwktWiPcJ4gRDJZ8jjEgLVigIrsFgUAOOmaq+kiG7OE6M9JZgUQHLZ5bAySjDwT5PTKy62xkhz5kSPyRbi27kIHfVKeJMcpQnONz9NmSE8lyqnGv2jWyFxkUkT+exCzHpEu0dUQrR0H9S45yUxNaZHWOIQd5rYlxdV95Toj+bRVxj3ittv0I2EvReSsvYJbzeT5mvOVxKeTDDHWzOUFccQxWyfOhbKFexHeIqMxjXFd8yDX1I6q5YdahuLTmzB7KY47EnxwhVjnGlfyp5hhFtMYX96m7ytjJ7wc9l209i6wfZL9ynudQ4tCbV6uM1s8jWvrs8TPX0c6YvxHaUN9bj+n+6hwzxhhjngXelfGdu+ebqLLWis+3ClTXbLO1qPriGZ0D1zqH2ZqkonOLvWvRmV3A9dHvuL12SSb23IOPjWg+YqLCBBLHUDLcz84RUUYsUY76YmAghwARAJzYQoGNwY7E5Myo/1xadgF9kRy0ifrMdI46aMDHv44IAs19+RY/577EyK6zyXZkKnbpXiTbxzVyRlTltEp+jmvqZyA7ThIRZDDR0Eby8qQT6eUY+RL1RN6eiUHjRX8owZ/5Y1KszDH6pZ9e/Fb3haw4JxAb+ugVcY948RztVth+Fug6ynlKhPbY2EI+yrTk9Pw00+dKY3A2HyofYt9AXbRduuSCTKE+IrTJPuSaenMdZnNmDy1SyR/ynrwlvso5oXzJZWsbzmfj64pjJ+uode09yPqBbBT5GniGZ/fSeldWaemzx8+0ide9GNKG+h6rcswYY4x5Vng/Hv0mqqy1Kt/dHGdygOtW0dpBcnhG58C1zoHz0ZqkulfwaN9xVbsie79BVvKxEQ04XQpzjrEt5VrOEdwjAaLxFIwFfUBluQwABk0L2vJMb8GJ/J5OM316RB2rOrd0UPICcgi4JgcKuvEcOmWoa8m8B9iBLi2qdlUGGtd5AslskaN4q+S4j+wSsq+nl2TEEu3uQbucU+Q4H4zkFn3Sho+vrRAL6RvPM+hJH0dzDDnoq1xvsaovmM0JI+4Rr5W2n0El5/MYVExaUJ/bQ0tOy0+PNAYr86HyIetIXbSda56lXSxxHqv6kGvqzTUgjuTJaM4cQSz5Azl5hizylTzgKCr5U80x2sVCm8wVx04kfoycTdYP8tjN13B03B59V2Z99viZNvG6F0PaUD/iaI4ZY4wxz4zepbHk920L2umbqLrWmlGVw/VoLcq5ntE55DWS5ES2rv1e4TsOHY58g6zis41owUIPxVCwtXhtOUcQtFGwcXzreYJEfy2QOXIUzuzpNNOnBQmIPA3Gqs5Zz7x5Ij05Cv3SOtaJkV1ngw/RpUXVrspAU97hux4VOdW406Znl5AtvQ+5qE+cvEbkHGuhNnFjIdLKGYFc9EBnZPQ+1Ko51usLHXl2Zgsc7SsymxNG3CNeVduvwpacB/mxl6vIiu1FlgMtP111DLZQrGMe5/lQ7xQ2VETrPVOZx6o+5Jr6ng/NOZBTisVszhxBbrC2IPbIVB5szZ+tObZ1fN1r7PB+iDrqXaj12Nngs+zn7HvOaRcZrY0r0MeKd6XY42euoxxiR12MM9CG+ip7cswYY4x5ZuK7e+uaTevS6lprRlVOXg9ltD7kGZ0D1zqHFWs/yY9rlGf5jiPOknPkG2QVHxvRGIViOALlSFqc3qLlHMGGF/dZGHJOwDhGp5Ekks99OaSVJJLX0oU6nuU52qA717FtRR+SKN6TD5RsUNFZi2vu0YY+oxwlKM9Qhyy1oU46Vew6C3RCV+yXLdgRqdqFHZQIbbBNKF74mgHCvWz7Fjm9uFfsEkwiyOmR9Yl5ICo5Fu2lqE2c5IRyo5cT2Md9ZODLzJYcG/WFbO7hx6g7RazqSyi2ozYj6J8ibhmvLbZfiUrOE3P8gS2aHzW+gPHEfQq2q330IXIokRwLuOIY7FGdD+Uz7qOP2kSdqaeOe1H36OdsO2Q5IL3wpezbYpdZQ2XOrEDMkaGFJHKVT6KSP5U2Ocda4+tqY4d71KEH9eQ918i9B3oHcIz+ifGiTnMdetJOz+xBsY19bAF9KBHkbfWz4kOOUGS7YkqhPXHVs6312IocM8YYY56Z/O5urdmoi2s+vU/ju7uy1qpQkaP1CveiXlr3ca1ndA5c6xwqa5IZz/wdh77IQHfJULkH33g/fgQVR7DYiw7KtJwTwcFaUFIwOi4qkU1A5AyO9MkufYaA06Z1T4MmlxzMmT7qIz7PM5GqzvhFbUiULCfeRyclFUU+rdp1BuhU0aNqV3423hc5XhQGudgrB/0U96pdyODeaAJr6UPs6U/5Ucmx3EYTTQu9VEZ6yXbkZug/9qXS8sGor/x8LGJVX2I0J1Sg39z3reK1xfarUM152YLf8EV+Z/RspwjaZF9wP/rxqmNwBM/QNzJ68yF16EAdbbV4yv2hY28eg5btLTlAH9gkWbzTzLnI962yhbzgVS7lcTLLH9iTY7PxdYWxE2WhTx7vZ4Kf8FHUJ+srP1NPGwrP7H3XKSZ7n2/FHXlb/RzjxTHHNNqrkvuFVTlmjDHGPCutdzfvS97TW76JWmstjlvfu1U5o7Uoa1vqeEbnoPVDhDqepX7v2i/KOLoWHdkFyKBEWnLg6HecnmuVe/CxEW2M+TpMDEwexrwKV8v5VxmDWsBwNMbUeZax0/oYMcYYY4wx18bfcdvxRrQxHfirIX+NGv0S05hn4mo5/8xjkIUKtlH061b+yr3314vGvArPOna8EW2MMcYYc338HXccb0QbY4wxJ8OGE4sWCr/4PvJ/wTfmlXjWseONaGOMMcaY6+PvuON4I9oYY4wxxhhjjDHGGGPMTfFGtDHGGGOMMcYYY4wxxpib4o1oY4wxxhhjjDHGGGOMMTfFG9HGGGOMMcYYY4wxxhhjboo3oo3ZyBd/+eLtH6j3P0hvXoWjOf/7P/zu05d//fL96jgeg8YYY4wxxhhjzOPxsRHNRz3lKKvkRH7z219/+u73vvPxX6b8+z/+9n5nDbfQ2dyOe8eLXPzxT370fuX8eTQcr+0cyXnma+btb337m+81x/EY3M5XX/1z6R8DzOvg8fWaOO7GGGPMY3HLdzffc+zLHWWVnFfiGb/jTt+IxoHaUG4VfukWIUmpRybnFP0KjuPPfv7Ttw0O2nDsJTXB++WvfvHpBz/8/lvb+Eu6iu1sprDxIT3ZCMm69mzLSYOOqtMzrTayq9XXK1OJ160gDjleW/In5ir5eC80Hsgt9OmNmxmVcbGiL42TXtkyPs6M1yo/rwRdZD86zXyxN+cj+JJfRa/gWcbg2ZB72D1ia26Y7VTmzKtRGV9mDLHO8/8t/Hr2u9IYY4wx16Hy7t77TUTbFd+yq+S8EpXvuBlX25e420Y0bTBehQGAUzLUsXncQh9zf/rzH9/kKkB5w4P71Md+CYSY6Qzohx7qS31HObJN/zd0lbjpzcCPOuoZjkL6oif16otnzX0/jug352NFH7VR/vAHFGLK9T3QmEMn5doeKuNiRV8aJ8jgeZXevDFCsRihNkfjtcL21UT75dMR3N+T87dirz5qc5UxeDbkHvaOiH6s5IbZTmXOvBoxL8w+iHGe/2/h17PflcYYY4y5DpV3t9ps/SZqrWX2sErOK4G/8NsRtB4k9leIwdc2otklRzGUJCnzv8HJryn4iKINhY+ouEE6k6NFcjScDzDqWn+JyW0j6isinYT6oy7bImY6Q/5IlM5x01t9cezBAI9tWs/kzXf0kE5nI/0o+BD90YXrGK/YDv1buZP9nGWIrTnWk6PBxn10ipNr1a6I/oiQJ2npE0H/XBeRrPjrJPyFzugq3Vr9AXnHvZg30NOReFCvmCif5Ye9E1FlXKzoq/Ws+urFq8eZ8Vrl55VE+8n5it29nNcY1PwUxzy2yieUVj9ZDmUUzyuNwRGKN6U3H5Ib6Ecb/EcfHHOOcK25Kc9jINt7PsxxiCX3JVkwyw2zD80JQvNYnDNnKKbxnPxS3nEUs/yBWZuYFyKPr0cYO3Gsnw06ZP2yX3Udx3LL/hGtd41ybDS3tmjp05Ix8zP10c6cpzHmo/XYqhwzxhhjnhW9uyN7volaay3O81pmRlVOXkvEd7vWCVqPsFbQeV6XzNYkFeK6BBmP8h03A51B9m19fjWfbUTjHAKLctrowvGCQFJHOxTHSTiWazGTgwN4lntCbRgEQBvuy0k8q2u1AfWPXiSH5MSEQw/acF8yFARRsT2jAUtbwbPUoRc2UqK+oCQTeoaj4FqJoefRkUnkbOQ3TWAU/Cs7pLfiSsGP3KNtRH7mSDuOtIsDckuOKS84Zjk8Sx1H2uhauVG1K0I/UQ+h5wWykYGsDH5CT+Tk+9IR/3GukvMVWjYLZCMjgg9zHWAncuhnBa1xIY70pfyKccnzRpV7xGu1n48Q7efYygsxynnlGba15kz8wD3ZHn0uJIcjvuFI21Zew5XG4Aja61lkteznmnGJLsw9sp1nBOeqw4+61jwGPDfyoeKgOUMxoWS7eJai81FumDWM5swexI5nyHNymPhTp/ygHir5U2kT8wJa40vPXWXscE/PUo+PuMbGe5D1A3SLtnGOntgdY9Gax3rIf9HOI+9K9GHuQJ7mEM0tUPGz7gvuxTbkE+ez9Zj8cTTHjDHGmGdF71Gx95sIGXGtpTUZ790tVORwrjre+brWWlTrBr3/OUcesjkXlTVJhVVrUenKsWUX8Bx6SmfJQS6gC89WvuOq8GzW9R58bSM6gsE4WLBIpI0+coCFbbyuyMlIrlCQWgX5ERbYyOYexxhYoJ4Eoo8op5UAkZnO0jEmgBb7Wkwjs9UX94USgSPooxT5WoS3BtrZqH99yGC39GwhX+TcwKeq08QYZVRzLMcmy0EGMYzwHLkQqdo1shcZFJE/noRiTaF9vi9doq0j8vNC/UuOckoTWkQ69eK4FeQgrzUxru4rzxvRv60i7hGv1bYfAXspOm/lBcxyfsucKR9mqJvNCeKKY7BKng9lC/Uizv2iMo9xXfEh19SPqOaGWYfi0pozeyiPORJ/coRY5RhX8qeaYxTRGl/cp+4qYye/H/RctvUssn6Q/cp5nkOJQ29erZJ9UaWlzx4/cx3tjPkboQ31vfWY7q/OMWOMMeZZ4F0Z37l7vokqa634fKtAdc02W4uqL57ROXCtc5itSSo6t9i7Fp3ZBVwf/Y7balf05z0Z/hvR2WDO9ZHaoyInoqDFQEZGTuLDSzrRhkATSJwruE9SkjBAcEmKmKR7dKaf7Av6UD/Q6guZMSGVCNI5JoYmjvhXlnsx6x+70Ve+xOfRLtC9iGwVXO/JsZacVsnPcU39DGTHSSKCDGJMG8nLk06E/GECol30D3GOeiIv5lMVjSn9AQR/5o9JEfPtKL1xIVb3haw4bxAb+ugVcY948RztVth+Fug6ynlKhPbY2EI+yrTk9Pw00+dKY3A2HyofYt9AXbRduuSCTKE+IrTJPuSaenMdZnNmD8YAsSR/yHvylvgq54TyJZetbTifja8rjp2sI7KQeQ+yfiAbRb4GnuHZvbTelVVa+uzxM23idS+GtKG+x6ocM8YYY54V3o9Hv4kqa63KdzfHmRzgulW0dpAcntE5cK1z4Hy0JqnuFTzad1zVLkFdq4+zGW5EE4BoMOejRIaKnIju9RaTPSfpQ4znIwwkBp9oPZ8DuUVnAseHIwlZIfalDwJ8qMTQX1g4YhNwnXVGv2qft4D+W/4A9MYnmvQo2Ej7mPwtP2dbud6TYz058rMKMYiM7BKyr6eXZMQS7e5Bu5y/jANygTymT9rw8bUVYiF943kGPekj59tWkDMbF6v6gtm8MeIe8Vpp+xlUcj6Pwd6cCdTn9tCS0/LTI43BynyofMg6Uhdt55pnaRdLnMeqPuSaenMNiCN5sve9Tiz5Yzx5hizylTzgKCr5U80x2sVCm8wVx04EX+exchZZP8hjN1/D0XF79F2Z9dnjZ9rE614MaUP9iKM5ZowxxjwzepfGkt+3LWinb6LqWmtGVQ7Xo7Uo53pG55DXSJIT2br2e4XvOHRo9XE23Y1oBSF+1BBI6rjXoyInQpBHH2I9JxHA1j2CTX+CNjkhc5uKztQpAfLGhWjdi33pF9y9QlJA9on0yXacCf5BxxZKZukPsjXWZT8DbWIM9+QYZDn4MLdpQZueXUK29D7koj6KFf2PoB0ye7kEatMbO9G3GeSiBzojo/ehpti1xlik1xc6zsaFONpXZDZvjLhHvKq2X4UtOQ/yYy9XkRXbiywHWn666hhsoVjHPM7zod5fbKiI1jutMo9Vfcg19T0fmnMgpxSL2Zw5gtxgTUDskak82Jo/W3Ns6/i619jh/RB11LvwXusofJb9nH3POe0ieb26FfpY8a4Ue/zMdZRD7KiLcQbaUF9lT44ZY4wxz0x8d29ds2ldWl1rzajKyeuhjNaHPKNz4FrnsGLtJ/lxjfJs33HRn/fks41ogodiOJtzEjcay2YWSlNPoqI8hfaiIkdIXnw+M3KSZPM8/SlAMdk4l4zYJn4AVnTmmue4h4xYBHJoR1L2+srQjjYchRbpPE89i+zc5izwAf1it3RgoEU08PA19/GhdKZOfsQ/lIjsFNUcq8pBD87Ri6N0qdglmERGHzpZnxg/QV3Ug/bqV0R7KWoTJzmhvO6NHezjPjLwZYbn6ENyaMd1S96or8q4WNWXUGxHbUbQP0XcMl5bbL8SlZwn5vgDWzgnFzS+gPHEfQq2q330IXIokRwLuOIY7FGdD+Uz7qOP2kSdqaeOe1H36OdsO2Q5IL3wpezbYpdZQ2XOrEDMkaH1BXKVT6KSP5U2Ocda4+tqY4d71KEH9eQ918i9B3oHcIz+ifGiTnMdetJOz+xBsY19bAF9KBHkbfWz4kOOUGS7YkqhPXHVs6312IocM8YYY56Z/O5urdmoi2s+vU/ju7uy1qpQkaP1CveiXlr3ca1ndA5c6xwqa5IZz/wdh648hx3Ikp+ovwffeD9+JCAFp0ZHR3CeFosqUfmqHJAT+CtMD+7nQAjkElj6UX8sVKM8zulHbRS8SEVn3W8Vkfvi2NNdaDDlAcJzUWf8fg/QQ3aq5MECUV/yQ4OFIh/wXH423heVHNsjB/30cVO1CxncG01gLX2IGf0pF5Xrsa8c09ymlatCL5WRXrIduRn6j32ptHww6is/H4tY1ZeQn0bzxgj6zX3fKl5bbL8K1ZyXLfgNX+Q5s2c7RdAm+4L70Y9XHYMjeIa+kdGbD6lDB+poyxwX7wt07M1j0LK9JQfoA5ski/enORf5vlW2kBe8yqU8Tmb5A3tybDa+rjB2oiz0yeP9TPATPor6ZH3lZ+ppQ+GZve86xWTv8624I2+rn2O8OOaYRntVcr+wKseMMcaYZ6X17uZ9yXt6yzdRa63Fcet7typntBZlbUsdz+gctH6IUMez1O9d+0UZR9eiI7sAGZRISw4c/Y6Tvrnk/s/iYyPaGPN1GJhMHsa8ClfL+VcZg1rAcDTG1HmWscNcd6+PAWOMMcYYsw9/x23HG9HGdOCvhvw1avRLTGOeiavl/DOPQRYq2EbRr1v5K/feXy8a8yo869jxRrQxxhhjzPXxd9xxvBFtjDHGnAwbTixaKPzi+8j/Bd+YV+JZx443oo0xxhhjro+/447jjWhjjDHGGGOMMcYYY4wxN8Ub0cYYY4wxxhhjjDHGGGNuijeijTHGGGOMMcYYY4wxxtwUb0QbY4wxxhhjjDHGGGOMuSneiDZmI1/85Yu3f6De/yC9eRWO5vzv//C7T1/+9cv3q+N4DBpjjDHGGGOMMY+HN6LNw8EGFOVefPd73/n045/86P3K/6X7R8Px2s6RnP/7P/729l8U/ta3v/lecxyPwe189dU/l/4xwLwOHl+vieNujDHGPBa3fHfzPfeb3/76/Wo/q+S8Es/4HbdpI5pfn/3s5z9921DQxsIvf/WL97v/B5sObBCM2uBI6thM6CVipa9Wm1sldaUv2c59Cvbxy71IpU3F9lfmnh9HxIqYxImgok9lXJxJZQxWqOTzir7wt/poldzniDPjtcrPK0EX2Y9OM1/szfkIvuRX0St4ljF4NuQedo/YmhtmO5U582pUxpcZQ6zz/H8Lv579rjTGGGPMdai8u/d+E9F2xbfsKjmvROU7rgJyFPd7f4Ns2ogmqVH8T3/+49tiVw6JiaTkVxs2VGnDtZADaNdLxEpf+pjLbVZteEQqfaHvD374/Y82eobNKFFpU7H9lVGO3QP6JX6Rij5qo5i2xsWZkEuzMVihks8r+kI2zyKD51WQyyS6BcVihNocjdcK21cT7ZdPR3B/T87fir36qM1VxuDZkHvYOyL6sZIbZjuVOfNqxLww+yDGef6/hV/PflcaY4wx5jpU3t1qs/WbqLWW2cMqOa8E/sJvRyC+8n38BuEPE/fgs41oLVZRiAVrTEZ+pUt9/msJH1R5UyCCYTwXd9v1waUFc07Eal+tgcZzODUyskvM2lT6yh+SXNMmblbP2uz1861QjGQrfpGfoo6xHf5jQsOWiHzIc2qb7QRyBVvVhn7jAKnKGcW0aldEuVzJDfTPdZHWuMBf6Iyu0q3VH5Av3MOOSE9HvWAUk9kYrLIl54/01XpWffXi1ePMeK3y80qi/eR8xe5ezmsMIiePeWyVTyitfrIcyiieVxqDIxRvSm8+JDfQjzb4jz445hzhWnNTnsdAtvd8mOMQS+5LsmCWG2YfmhOE5rE4Z85QTOM5+aW84yhm+QOzNjEvRB5fjzB24lg/G3TI+mW/6jqO5Zb9I1rvGuXYaG5t0dKnJWPmZ+qjnTlPY8xH67FVOWaMMcY8K3p3R/Z8E7XWWpzntcyMqpy8lojvdq0TtB5hraDzvC6ZrUkqxHUJMh7lO24G/ZMLApvQDfvuwcdGtIzkiPN1reApINlgBSBDcHA0BucEET2Z1b6Qi/PQEUdqcy4mnOzg2LILKm0qfWU0qEcfmLnNVj/fGmxFJ01gFGzWYOEeEG90pjA5cI+2Ea7JB46040i7OCCRTR3taCO/cy0kh0FD/xyzHJ6ljmMrplW7IvQT9RB6XiAbGcjKjMaFdMR/nKvwTKZls0A2MiL4MNcBdiKHflYwyvkjfSm/Ylw0BulzC/eI12o/HyHaz7GVF2KU88ozbFMsaC/wA/dke/S5kByO+IYjbVt5DVcagyNor2eR1bKfa8YlujD3yHaeEZyrDj/qWvMY8NzIh4qD5gzFhJLt4lmKzke5YdZQWSdkiB3PkOfkMPGnTvlBPVTyp9Im5gW0xpeeu8rY4Z6epR4fcY2N9yDrB+gWbeMcPbE7xqI1j/WQ/6KdR96V6MPcgTzNIZpboOJn3Rfci23IJ85n6zH542iOGWOMMc+K3qNi7zcRMuJaS2sy3rtbqMjhXHW883WttajWDXr/c448ZHMuKmuSCqvWotKVY8su4Dn0lM6Sg1xAF56tfMfNiPppTUh/cXP6TD42orXYjKAYzhc4mzp95GAAdRgVwTHUUWjPdQu1k0Mi1b5YYKueYwwsVOyqtIFZXxkl2yhJWm2QXbH9TNCH/pW06Mt1K3agDx/ZAMjADtVxzDIYCMQjPkefLTmRLKca06pdI3uRQRH540nMxoV0ibaO6I0r9S852Ma1JrTIaAzuATnIa+X86r6UKyL6t1XEPeK12vYjYK8WGxxbeQGznI++B8ZbHpdCPsxQN5sTxBXHYJU8H8oW6oXGabSvMo9xXfEh19SPqOaGWYfi0pozeyiPORJ/coRY5RhX8qeaYxTRGl/cp+4qYye/H/RctvUssn6Q/cp5nkOJQ29erZJ9UaWlzx4/cx3tjPkboQ31vfWY7q/OMWOMMeZZ4F0Z37l7vokqa634fKtAdc02W4uqL57ROXCtc5itSSo6t9i7Fp3ZBVwf/Y6r2BX1U07w7UD/anM2HxvRUjQXlBMoG+8RbO7HNhEMxtG0xUGZmFSZSl9qgzORQaAJZOwryoglymndp2ztK4Lt3Kd9j16brX4+A/pGlx4MSOyQnuhM++iflg20ifHneuQzqMpplfwc19TPQHacJCLIYKKhjeTlSSfSGxf8YSPqiTz8uhVNNPpDCf5E9xajMbiVWc6v7gtZ8QVAbOijV8Q94sVztFth+1mg6yjnKRHaY2ML+SjTktPz00yfK43B2XyofIh9A3XRdumSCzKF+ojQJvuQa+rNdZjNmT20SCV/yHvylvgq54TyJZetbTifja8rjp2so9ZS9yDrB7JR5GvgGZ7dS+tdWaWlzx4/0yZe92JIG+p7rMoxY4wx5lnh/Xj0m6iy1qp8d3OcyQGuW0VrB8nhGZ0D1zoHzkdrkupewaN9x22JBXKwjXPWVfTdk3trPtuIJnBZcZIzQmB0j3Oem31E9dogg3vZ0WLUlz7EslwGEoNP0GZm16xNtS/Bs3xckrQ9Zm32+PmWjJIU/2CLJj0K/qQ9+ovKQOM6TyCZLXLkQ5WczyO7hOzr6SUZsUS7e9Aux5RY88FIbtEnbZgktkIspG88z6AnffTGYBXkVHJ+RV+A35CFv7Zyj3ittP0MKjmfx6Bi0oL63B5aclp+eqQxWJkPlQ9ZR+qi7VzzLO1iifNY1YdcU2+uAXEkT0Zz5ghiyR+tyTNkka/kAUdRyZ9qjtEuFtpkrjh2Ivg6j5WzyPpBHrv5Go6O26PvyqzPHj/TJl73Ykgb6kcczTFjjDHmmdG7NJb8vm1BO30TVddaM6pyuB6tRTnXMzqHvEaSnMjWtd8zf8e15NL33m+Ro3z2T3NsCRKLQZQmUKMFLsHE6PyxDwSi5ZBMqy8C2HqWYNNOVOyatan2ha1Kkpa9UGkTqfr51uAfdG6hOHIU+lV3rENG9jNtol9lK37qUZFTzWfa9OwSsqXn/6hPnLxGjMaFUJu4sRCJvs0gVzmDjN6HWnUM9vraks9H+4rg372T5j3iVbX9KmzJeZAfe7mKrNheZDnQ8tNVx2ALxTrmcZ4P9U5hQ0W03jOVeazqQ66pv+d7xPxfTikWszlzBLnBGoTYI1N5sDV/tubY1vF1r7HD+yHqqHchPrsH+Cz7Ofuec9pF8jpzK/Sx4l0p9viZ6yiH2FEX4wy0ob7Knhwzxhhjnpn47t66ZtO6tLrWmlGVk9dDGa0PeUbnwLXOYcXaT/LjGuVZvuPQJ64JlR/3Wht/bESzUYVxLOg4x9Eco7Gc4wScRVsUJzARAhKfV9scTORgNPdow3WUVekLR6oe+QpQdGbFrkqbSl/cp4623I9FVNpUbD8LdMFe9EUXzhloEQ08fMF9dMWXqpMfsYcSoU20XbHAZiZD+Sbav0VOL6YVuwSDFjk9sj76yIr6VMZFtJeiNnGSExo7vbzAPu4jA19meI4+JId2XLfkjfqq5POqvoRiO2ozgv4p4pbx2mL7lajkPDHHH9jCObmg8QWMJ+5TsF3tow+RQ4nkWMAVx2CP6nwon3EffdQm6kw9ddyLukc/Z9shywHphS9l3xa7zBoqc2YFYo4MfTQgV/kkKvlTaZNzrDW+rjZ2uEcdelBP3nON3HugdwDH6J8YL+o016En7fTMHhTb2McW0IcSQd5WPys+5AhFtiumFNoTVz3bWo+tyDFjjDHmmcnv7taajbq45tP7NL67K2utChU5Wq9wL+qldR/XekbnwLXOobImmfHM33ExF9BFOm/xz0q+8X58A8doIUjBuXExiJLU4ywWhNGJggDpebVFboS62Ca2FZW+qMOB6ElbjrRldz8yswtmbSp96dlWEa17KqJi+1mQqFnPGCdBO/kGP2qwULgHPJefjfdFjgWFQS72yokxrdqFDO6NBmhLHyYJ+lN+VMZFbqOJpoUmkpFesh25GfqPfam0fDDqKz8fi1jVl5Cf8jivQr+571vFa4vtV6Ga87IFv+GLPE/1bKcI2mRfcD/68apjcATP0DcyevMhdehAHW21eMr9oWNvHoOW7S05QB/YJFm808y5yPetsgUtHhVn5VIeJ7P8gT05NhtfVxg7URb65PF+JvgJH0V9sr7yM/W0ofDM3nedYrL3+VbckbfVzzFeHHNMo70quV9YlWPGGGPMs9J6d/O+5D295ZuotdbiuPW9W5UzWouytqWOZ3QOWj9EqONZ6veu/aKMo2vRkV2ADEqkJQdWfMet8M8qPtuINsZ8DhMDk4cxr8LVcv5VxqAWMByNMXWeZey0PkaMMcYYY8y18XfcdrwRbUwH/mrIX41Gv8Q05pm4Ws4/8xhkoYJtFP26lb9M7/31ojGvwrOOHW9EG2OMMcZcH3/HHccb0cYYY8zJsOHEooXCL76P/F/wjXklnnXseCPaGGOMMeb6+DvuON6INsYYY4wxxhhjjDHGGHNTvBFtjDHGGGOMMcYYY4wx5qZ4I9oYY4wxxhhjjDHGGGPMTfFGtDHGGGOMMcYYY4wxxpib4o1oYzbyxV++ePsH6v0P0ptX4WjO//4Pv/v05V+/fL86jsegMcYYY4wxxhjzeNxlI5oNBEqV3/z215+++73vfPyXKf/+j7+939kHMpC5ha06r2K17c/AvWIhiMePf/Kj9yv/l+4fDcdrO0dynjmLuetb3/7me81xPAZfg6+++ufSP2CYfXh8vSaOuzHGGPNY3PLdvWcPrcUqOeax+WwjmoRgs4Dk4EOfX51F2FDg419tOP7yV794v1tnywBBJ/qiPecU/QqOj1T610ZtNaFz24qcis7o9bOf/3ToH/mQ+5SWnwV60KZl+ytTicWtIFbEJG6OVPRZNXZWsXfsZCr5vKIv/K0+WqU3hlqcGa9Vfl4Jush+dJr5Ym/OR/Alv4pewbOMQTOH8UKsjrI152/JljXAVaiMLzOGWOf5/xZ+PftdaYwxxpjrUHl37/0mou2Kb9lVcsxtIDbKjVt+p3xsRP/pz3/8SAoWsvpQIlGFEpu2tGHTlTZcb6EyQATG/+CH33+/+hw5CVlbEjq3rcip6Mx95Mg/yMnyuI89aiM/s2GVGdn+ylRicSvoN8ekoo/aHB07q6jkfIVKPq/oC9k8iwyeV0Eu42QLisUItTkarxW2rybaL5+O4P6enL8Ve/VRm6uMQTOH8UKMjhLzo5Lzt6QyZ16N6D+zD2Kc5/9b+PXsd6UxxhhjrkPl3a02W7+JWmuZPaySY9ZDDig+8Tsl7gmv4mMjOm968stbFq4kZg8UQrG8S65FL/eQm5Nayc9fXmijflq/9pUjWujDTQvvVjva0Jf6ic4VFTkznTlSn/+ahE+jX/PHJtc81/q1YE+XM5FPKCQi/lNso62xHTFvxTP7MMsQ5BM+Uxv6bf1BZCYH3/XysGpXRPney+cI+ue6SGvs4C90Rlfp1uoPyBfuYUekp6NeMIpJJecrVPJ5RV+tZ9VXL149zozXKj+vJNpPzlfs7uW8xmCeDwFb5RNKq58shzKK55XG4IiqHNocmaOq4x2O9nUmOXdi4d5WYn5g1ygvbk1lzpwh/8RzYq04chSjuItZm+g/kcfXqrETcxFZrbUEPqNv2qC38pX+I9muvFY9E3TI+mW/6jrOhy37R8h/sa+j78qoT0vGzM/URztznsaYj+afVTlmjDHGPCt6d0f2fBO11lqc57XMjKqcvJaI73atE7QeYa2g87wuma1JKlTXGxWdKY/0HYds8kWgA7LQaTUfG9EoioGAU4CkiYoIEgoDUbQVfMnCKbqOSYBcnsVRtNGmmgxEPvVyKvW6lm4RtZP+EfrCeeiLDvTZazuTM9K596wGXg8loD5Ct9p+a0g++tYERsGPGvzcA/TGdop8TNuIfMiRdhxpFwcSsqmjHW3oh/hxLSRHvuGY5fAsdRxpo2vlYdWuCP1EPYSeF8hGRmvgV8YO/uNchWcyLZsFspERwYe5DrATOfSzgpzPkSN9Kb9iXDQGt46Le8RrtZ+PEO3n2MoLMcp55Rm25fkQ8AP3ZHv0uZAcjviGI21beQ1XGoMjKnLUhiM+0vXWOUpxiOTxvqqvs1DuaJ7jXGVrLEA26Tz7656M5swe+IFniBsxIgeoU1yph1ncodIm+g9a40vPHR07tNezyEJm7Bu4jus6rmWD4J6epR4fcY2N9yDrB+gWbeNc4znGIs9TI+S/aOeRdyX6MA6Rp/EY5+eKn3VfcC+2qc4/8sfRHDPGGGOeFb1HRWvNJnh/9r6JkFHdQxtRkcO56njn61prUa0b9P7nHHnI5lxU1iQV1MdovaE2HFs6V9c2WvdF7vkdp35A60bkIXs1bxvR+hCiUyncCi5gCHUU7mfDtGiN0C46k2vaRXgGp4Oc2yo8m5FOcpogWaiPH3jR1kxPDsx0Bs5pRzIAfVGHzB6yVYm91fazoG90UELKty1fgT585AtABv5QHccsgyTHz/E5+mzJiWQ5lTyEql0je5FBEb1BPxs70iXaOiI/L9S/5CjnGdOZUc7vATnIUz5HVvelXBHRv60i7hGv1bYfAXspOm/lBcxyfjYfRuTDDHWzOUFccQz2qMhZNUfJVvXVGu+r58Me0b+tUm0j6DfX7aGa8/dANrbmzB7yIUdiRmyxKfurEvdKG64pojW+uE/d0bGTyWsJ5eRsXZffD3ou23oWWT/IfuU8z6HEoTevVsm+qNLSZ4+fuY52xvyN0Ib63vyj+6tzzBhjjHkWeFfGd25rzQZ6F1NoH+9X1lrx+VaB6pptthZVXzyjc+Ba5zBbk1R0hsp6Y6azkKze2kbxufV3XMX2GBvphR6Su5q3jegYXHXKLvqoUxTFeO7zvOC6VZAlOI/XkBNJUKdA9Yj6R1Qf9YOezJ4cqOhMoLhWYTC0nhP4kEU+Pm/R0+UeYEO0NUOiY4fsxXbaR9+3fJFt5LrnD1GV0yr5Oa6pn4HsuGEWQQYTBG0kL08Wkd7YYcxFPZGHX7eiSUR/JcOfvQ/ZUc5vZZbPq/tCVnyxERv66BVxj3jxHO1W2H4W6DrKeUqE9tjYQj7KtOT0/DTT50pjsCJH93PJ/pA9PSrjPcqPZWtfMypjsDpOAb8d0efqzObMHvgQv+Av8p7Y4yvkxJgqzrlsbcP5bHytGjs8IzsoeS3BMV4L6uhTcJ111JrsHmT9QDaKfA08w7N7ab0rq7T02eNn2sTrXgxpQ32PVTlmjDHGPCu8H49+E1XWWpX1PMeZHOC6VbR2kBye0TlwrXPgfLQmqX6DPON33JZ4YS96cI5eMxv20vynOQSdErwRPBc/orgmAbJxOFkgNztOxmZaemWi0yKq5xjpyezJgarOJClyKJxzP/pHcJ8kG/m3p8s9wPZsqyCxsUWTHoUcoH30fcuH2UauR5MlbJGjWKjEPISRXUL29fSSjFii3T1ol3ODnOGDkRcCfdJGE9MWiIX0jecZ9KSPo3mGnFk+r+oLNPb2fITeI14rbT+DSs7nMdiaDwX1uT205LT89IhjcCaHa+xBz1j2zFGz8b6yrzMhD66kz0rwP3kxW2P1wC/88Zt4I4s8I34cRSXulTbV8XV07FTWEhxb/VMX5w2u8ziIHyNnk/UDdIn65Gs4OgaOviuzPnv8TJt43YshbagfsWp+NsYYY54RvUtjye/bFrTTN1F1rTWjKofr0VqUcz2jc8hrJMmJ7F37vep3HM/nGCN37/fKiEP/sULaoGz8kEfOLNjcj23UV/yAEi1nZAhEqx3BoZ4kEqpryezJgS06A8mLP2kTPwB4Dvn0kzdAMj1d7gG2o08L+Y2j0K/DY132IWQb5TP81KMip5KHQJueXUK29D7koj7KC/ofQTtkjnJAbXo5Fn2bQa5yDxm9D7VRzkd6fW3J56N9RfJ8tYV7xKtq+1XYkvMgP/ZyFVmxvchyoOWnq47BKi05K+eo2Xhf2deZaG7pxT3OFTrH13lhdiXQrzpnjiCmrM+IGTI5UuLYqcS90kaygb62jK8tY0fzZIxrXktU13W8H6KOGhujNe0twWfZz9n3nNMugr65bgv0seJdKfb4mesoh9hRF+MMtKG+yp4cM8YYY56Z+O7eumbTunTrHlqPqpy8HspofcgzOgeudQ63Wvu11hsznUVlbXOl7zj6iutG5dAt1s8fG9FaGCrAOJrruFCkDY6hjqOMjW2op47nY9v4IclzGMg9PjI4l/Mz0qkFz3IPx9AOuVxTLySbOvSQXVFmRU5FZ855Tn5RvxHquMfztI0lk/W8B9iEzeiLPpwzgUQ0oeA/+Ud+pk4+wi+USLZR+YOfGJTyTY5FVU4vDyt2CQYkcnpkfeJYEpWxE+2lqE2cvIVyNeeXwD7uIwNfZniOPkY5L0Z9VfJ5VV9CsR21GUH/FHHLeG2x/UpUcp6Y4w9s4Zxc0PgCxhP3Kdiu9tGHyKFEcizgimNwREWO8njFHDUb7yv7OhO9W4i/fCkfcs49ruO8gY06vyKVObMCsUYGuQbIpUS7Z3GHShv6ogh8zjNR5xVjR/EmnugR40mddMJu2YquahP14R516EE9OcQ1cu+BcpRj9E+MF3Wa69CTdnpmD4pt7GML6EOJIG+rnxUfcoQi2xXT6vyzIseMMcaYZya/u1trNurimk/v0/jurqy1KlTkaL3CvaiX1n1c6xmdA9c6h8qapEJlvTHTubq2AdpKb3yVWdnXjJgvyFG8OF/NN96Pb9AhxtMZgcPAiBbSKjgrtwHq5AgKMqMzFEzd02K0BW3Qq0WUEwv1gn7VToOAY5RZkRPb9HQmQHqOBG7ZJBmtkqGuZ/tZ0H/WM/pFxNwh9vhd7WUDz+Vn432R84dC3MReOeinPKzahQzujQZfSx/GD/3xVySojJ3cBhnZJqFJYqSXbEduhv5jXyotH4z6ys/HIlb1JeQn+XYr9Jv7vlW8tth+Fao5L1t682HPdoqgTfYF96MfrzoGR1Tl0P/ROUqMxjus7OtMmPvxn/RiQQTKC45x3uDdi22jfLknsqNVtqCFofKKeHGd7R7FXczaIDvnw2x87R07PINcZKATekim5FEne2mrD4/cX5SFPth5L/ATPor6ZH3lZ+ppQ+GZve86xWTv8624I2+rn2O8OOaYRntVcr+wKseMMcaYZ6X17uZ9yXt6yzdRa63Fcet7typntBZlbUsdz+gctH6IUMez1O9d+1XXGyOdpVssOS4RyaHvFiv7mrHChxU+24g2xnwOg5hBb8yrcLWc9xg0xozQRjTHR4a57siHgzHGGGOMMY+AN6KN6cBfDfmL0FV/WWfMaq6W8x6DxpgMG87MCxT9MpxfbOz95e9V8Ea0McYYY4x5BbwRbYwxxhhjHgI2a/V/PeT/LcH/jfHRN6HBG9HGGGOMMeYV8Ea0McYYY4wxxhhjjDHGmJvijWjzknzjG059Y4wxxhhjjDHGGGPOwrtx5iXxRrQxxhhjjDHGGGOMMefh3Tjzkngj2hhjjDHGGGOMMcaY83jY3bgv//rl23/U5e//+Nt7zXPwrHZlfv+H373Zei+8EW2MMcYYY4wxxhhjzHk89G7cd7/3nbf/Wvqz8Wh2saGs/4I95Te//fX7nTZsstPuW9/+5nvN+Xgj2hhjjDHGGGOMMcaY8/jYjeNXuHEzUZuh//rX/763+PR2/stf/eJtA1EbiblNFTYvf/yTH33W32wDM0N7nv3qq3++13wd7me52Eq5KhW7rgTxJ57akK7Ekdjzq+h74Y1oY4wxxhhjjDHGGGPO47ONaG0GU7RJHDdstUGqf1aBazaj//TnP763qPHFX754k/ODH37/7RxZbGgja8vmKxugPDPa+GxtjF59I7pi11WpbkQfAflHN+m9EW2MMcYYY4wxxhhjzHl8thGdN2f59TMbi9r0W7WBy4Y3m9D5l9StX1az6Y0ObFa30AZ261mobETzLG3Qi/YqeYOdNvTFPdrG+/o1MIVNfO6pLX4U1b5mdkHWh019IX0UQ3TSedQHVtglqEdeC+oli9LKJcVGulJyP+qfdtlvVbwRbYwxxhhjjDHGGGPMeQw3orUJqU1gNkfj9R4ks7qBqD577dkkH93nXt4YzbZqg5SNVs5V4q9u1YYjNuham79sGFPPBrvkc08bqvKZnhv1BTO7qOc+/fC8NrbVj/ysfiSL9pwL3eN4xC4hWS2wifbSDVkZ6rCFI3I40jb7gWts4x4b0+iTfTjCG9HGGGOMMcYYY4wxxpzHcCNam8D6VS5HNiSp49jbJB2hTci8gTli1pYNSTYvW9BX3hjNtmqzc/TrY+TjjwjP0XdEsvgP8oE2lKVDpS8xsgv/x3vqRzrKz/Src+Ba57DKLtGqa0E7ZGaoY2M55txIJnpwT7+SruKNaGOMMcYYY4wxxhhjzuOzjWg2JdnUo2jjMW9IAhvQcUO6sqkq9mxEz5DM+E9TCOrzJia2xU1QnqMdhXra51/X6n4uUQ7Ibz0qfYmZXXkDmVhIHz2LfJ0D1zoHzltlq12CNtnfLVp9AHW5vicTv/FPt5C3tMH+Kt6INsYYY4wxxhhjjDHmPD7biGYzT0Wb0qNNZm1w5g3REXpmz6+pR8RN2Ah95U3M1manNjXZeNeva+MGsOxE/1j0C2EhP46Y9RUZ2bVqI3qVXaA+Z9CuZRd1uT7LzP8sB/pnfWd4I9oYY4wxxhhjjDHGmPP4bCO6tTE4o7dROoLNQza6q7+kZmN0BpuTbEzmDUn6yvrR90hn/XMQ8dfgs2cEbXi2SquvSM8u/I5Ogs1t2mlzGp9xPduIXm1X1GEE7Vr9UpfraRs3ovXskT9meCPaGGOMMcYYY4wxxpjz2LQRzX1tbFK0qRk3CStoc5XNVM6RxS+CW3LY1KRtZdORTdW8CarnOSIfG7I8/kN33FNRG361LPRParBhzLl01j+rwZE6bKId561f6Vb6yrTskg8VE9qoX+DINfd0DlzrHFbZJdROdnIUPMfz0oe2uhbYQ4nQFllCuh3BG9HGGGOMMcYYY4wxxpzFp0//H4IKAgW4bdf5AAAAAElFTkSuQmCC;" vertex="1" parent="1">
                    <mxGeometry x="100" y="150" width="924.44" height="80" as="geometry"/>
                </mxCell>
                <mxCell id="35" value="" style="rounded=0;whiteSpace=wrap;html=1;fillColor=#fff2cc;strokeColor=#d6b656;opacity=20;" vertex="1" parent="1">
                    <mxGeometry x="100" y="140" width="910" height="32" as="geometry"/>
                </mxCell>
                <mxCell id="36" value="External Load Balancer" style="text;html=1;resizable=0;autosize=1;align=center;verticalAlign=middle;points=[];fillColor=#dae8fc;strokeColor=#6c8ebf;rounded=0;opacity=20;" vertex="1" parent="1">
                    <mxGeometry x="220" y="100" width="140" height="20" as="geometry"/>
                </mxCell>
                <mxCell id="37" value="" style="rounded=0;whiteSpace=wrap;html=1;fillColor=#dae8fc;opacity=20;strokeColor=#6c8ebf;" vertex="1" parent="1">
                    <mxGeometry x="100" y="172" width="910" height="48" as="geometry"/>
                </mxCell>
                <mxCell id="38" value="" style="endArrow=classic;html=1;exitX=0.533;exitY=1.164;exitDx=0;exitDy=0;exitPerimeter=0;entryX=0.25;entryY=0;entryDx=0;entryDy=0;" edge="1" parent="1" source="36" target="35">
                    <mxGeometry width="50" height="50" relative="1" as="geometry">
                        <mxPoint x="250" y="340" as="sourcePoint"/>
                        <mxPoint x="300" y="290" as="targetPoint"/>
                    </mxGeometry>
                </mxCell>
                <mxCell id="39" value="The Cluster (1 master / 3 nodes)" style="text;html=1;resizable=0;autosize=1;align=center;verticalAlign=middle;points=[];fillColor=#dae8fc;strokeColor=#6c8ebf;rounded=0;opacity=20;" vertex="1" parent="1">
                    <mxGeometry x="220" y="260" width="190" height="20" as="geometry"/>
                </mxCell>
                <mxCell id="40" value="" style="endArrow=classic;html=1;entryX=0.25;entryY=1;entryDx=0;entryDy=0;" edge="1" parent="1" source="39" target="37">
                    <mxGeometry width="50" height="50" relative="1" as="geometry">
                        <mxPoint x="410" y="270" as="sourcePoint"/>
                        <mxPoint x="304.9999999999999" y="150" as="targetPoint"/>
                    </mxGeometry>
                </mxCell>
            </root>
        </mxGraphModel>
    </diagram>
</mxfile>